<svg viewBox="0 0 24 24" fill="currentColor" xmlns="http://www.w3.org/2000/svg">
  <path d="M12.206.793c.99 0 4.347.276 5.93 3.821.529 1.193.403 3.219.299 4.847l-.003.15v.075c0 .05.006.1.006.15 0 2.253-1.778 4.062-4.206 4.062-.605 0-1.17-.12-1.696-.315a.416.416 0 0 0-.494.178l-.75 1.313a.41.41 0 0 1-.33.21.4.4 0 0 1-.315-.15l-1.11-1.11a.4.4 0 0 0-.285-.12c-.24 0-.435.195-.435.435v2.25c0 .24-.195.435-.435.435H5.68a.435.435 0 0 1-.435-.435V9.14c0-.24.195-.435.435-.435h.78c.24 0 .435-.195.435-.435 0-.24-.195-.435-.435-.435H5.68c-.99 0-1.74.75-1.74 1.74v5.58c0 .99.75 1.74 1.74 1.74h.78c.24 0 .435-.195.435-.435 0-.24-.195-.435-.435-.435H5.68a.435.435 0 0 1-.435-.435v-2.25c0-.24.195-.435.435-.435h2.25c.24 0 .435.195.435.435v2.25c0 .99.75 1.74 1.74 1.74h5.58c.99 0 1.74-.75 1.74-1.74v-2.25c0-.24.195-.435.435-.435h2.25c.99 0 1.74-.75 1.74-1.74V9.14c0-.99-.75-1.74-1.74-1.74h-2.25c-.24 0-.435.195-.435.435 0 .24.195.435.435.435h2.25c.24 0 .435.195.435.435v5.58c0 .24-.195.435-.435.435H9.93a.435.435 0 0 1-.435-.435v-2.25c0-.24-.195-.435-.435-.435H7.245c-.24 0-.435-.195-.435-.435 0-.24.195-.435.435-.435h2.25c.99 0 1.74-.75 1.74-1.74V9.14c0-.99-.75-1.74-1.74-1.74H5.68c-.99 0-1.74.75-1.74 1.74v5.58c0 .99.75 1.74 1.74 1.74h.78c.24 0 .435.195.435.435 0 .24-.195.435-.435.435H5.68c-1.215 0-2.175-.96-2.175-2.175V9.14c0-1.215.96-2.175 2.175-2.175h5.58c1.215 0 2.175.96 2.175 2.175v5.58c0 1.215-.96 2.175-2.175 2.175H5.68a.435.435 0 0 1-.435-.435V9.14c0-.24.195-.435.435-.435h5.58c.24 0 .435.195.435.435v5.58c0 .24-.195.435-.435.435z"/>
</svg>
